<svg width="29" height="28" viewBox="0 0 29 28" fill="none" xmlns="http://www.w3.org/2000/svg">
<path fill-rule="evenodd" clip-rule="evenodd" d="M24.8366 16.7317C24.3311 17.0404 23.7357 17.0786 23.2831 16.8321C22.7082 16.5186 22.3921 15.7845 22.3921 14.7635V11.7088C22.3921 10.2337 21.7883 9.184 20.7785 8.90059C19.0673 8.41912 17.7804 10.4413 17.2967 11.2007L14.2787 15.9265V10.1503C14.2448 8.82137 13.7979 8.02644 12.9494 7.78673C12.3879 7.62829 11.5479 7.69181 10.7319 8.89785L3.97044 19.3835C3.06525 17.7239 2.59337 15.8758 2.59581 14C2.59581 7.68361 7.83693 2.54527 14.2787 2.54527C20.7205 2.54527 25.9609 7.68361 25.9609 14C25.9609 14.0109 25.9638 14.0205 25.9645 14.0307C25.9645 14.0417 25.9624 14.0512 25.9631 14.0621C26.0239 15.2853 25.6138 16.2578 24.8366 16.7317ZM28.5568 14.0007V13.9686L28.5561 13.9372C28.52 6.24468 22.1298 0 14.278 0C6.40574 0 0 6.2802 0 14C0 21.7191 6.40574 28 14.2787 28C17.8914 28 21.3393 26.6738 23.986 24.2664C24.5121 23.7884 24.5432 22.9832 24.0553 22.4683C23.9404 22.346 23.8015 22.247 23.6466 22.1773C23.4916 22.1075 23.3238 22.0683 23.153 22.0619C22.9822 22.0555 22.8118 22.0822 22.6517 22.1402C22.4917 22.1983 22.3453 22.2866 22.221 22.4C20.0757 24.362 17.2333 25.4553 14.2787 25.4547C10.8294 25.4547 7.72592 23.9803 5.58549 21.642L11.6829 12.1861V16.5453C11.6829 18.6391 12.5237 19.3159 13.2287 19.514C13.9344 19.712 15.0127 19.5768 16.1448 17.8012L19.4986 12.5501C19.6061 12.3808 19.7051 12.2346 19.7956 12.1083V14.7635C19.7956 16.7208 20.6074 18.286 22.0223 19.0571C23.298 19.7523 24.9017 19.6895 26.2084 18.8932C27.7924 17.9268 28.6459 16.1464 28.5568 14.0007Z" fill="#48E640"/>
</svg>
