<svg width="40" height="40" viewBox="0 0 40 40" fill="none" xmlns="http://www.w3.org/2000/svg">
<g opacity="0.4">
<path fill-rule="evenodd" clip-rule="evenodd" d="M20 0C8.95 0 0 8.95 0 20C0 31.05 8.95 40 20 40C31.05 40 40 31.05 40 20C40 8.95 31.05 0 20 0ZM32.925 12.5H26.825C26.3 9.725 25.55 7.425 24.55 5.775C28.125 6.925 31.075 9.35 32.925 12.5ZM25 20C25 21.825 24.875 23.475 24.7 25H15.3C15.125 23.475 15 21.825 15 20C15 18.175 15.125 16.525 15.3 15H24.7C24.875 16.525 25 18.175 25 20ZM20 5C21.675 5 23.4 7.75 24.325 12.5H15.675C16.6 7.75 18.325 5 20 5ZM15.45 5.775C14.45 7.425 13.675 9.725 13.175 12.5H7.075C8.925 9.35 11.875 6.925 15.45 5.775ZM5 20C5 18.25 5.325 16.575 5.875 15H12.775C12.6 16.55 12.5 18.2 12.5 20C12.5 21.8 12.6 23.45 12.775 25H5.875C5.325 23.425 5 21.75 5 20ZM7.075 27.5H13.175C13.7 30.275 14.45 32.575 15.45 34.225C11.875 33.075 8.925 30.65 7.075 27.5ZM20 35C18.325 35 16.6 32.25 15.675 27.5H24.325C23.4 32.25 21.675 35 20 35ZM24.55 34.225C25.55 32.575 26.3 30.275 26.825 27.5H32.925C31.075 30.65 28.125 33.075 24.55 34.225ZM34.125 25H27.225C27.4 23.45 27.5 21.8 27.5 20C27.5 18.2 27.4 16.55 27.225 15H34.125C34.675 16.575 35 18.25 35 20C35 21.75 34.675 23.425 34.125 25Z" fill="#8F95B2"/>
</g>
</svg>
