<svg width="40" height="40" viewBox="0 0 40 40" fill="none" xmlns="http://www.w3.org/2000/svg">
<g opacity="0.4">
<path fill-rule="evenodd" clip-rule="evenodd" d="M11.125 19.575C10.475 19.575 10.1 20.1 10.1 20.725V25.1C10.1 25.75 10.5 26.25 11.125 26.25H11.85V30.675C11.85 31.3 12.45 31.8 13.075 31.8C13.7 31.8 14.3 31.3 14.3 30.675V28H14.275C14.925 28 15.375 27.65 15.375 27V26.25H15.725C16.375 26.25 16.8 25.75 16.8 25.1V23.625C16.8 23.625 16.825 23.6 16.8 23.6L12.85 19.6H11.125V19.575ZM21.275 9.75H21.825C21.975 9.75 22.125 9.725 22.125 9.575C22.125 9.425 22 9.4 21.825 9.4H21.275C21.125 9.4 20.975 9.425 20.975 9.575C21 9.725 21.125 9.75 21.275 9.75ZM15.45 9.625C15.625 9.45 15.625 9.15 15.45 8.975L14.2 7.725C14.025 7.55 13.725 7.55 13.55 7.725C13.375 7.9 13.375 8.2 13.55 8.375L14.8 9.625C14.975 9.8 15.275 9.8 15.45 9.625ZM23.1 11.85C23.275 11.85 23.45 11.7 23.45 11.55V10.775C23.45 10.6 23.275 10.475 23.1 10.475C22.925 10.475 22.75 10.625 22.75 10.775V11.55C22.75 11.725 22.925 11.85 23.1 11.85ZM20 0C8.95 0 0 8.95 0 20C0 31.05 8.95 40 20 40C31.05 40 40 31.05 40 20C40 8.95 31.05 0 20 0ZM20 35C11.725 35 5 28.275 5 20C5 18.625 5.25 17.325 5.575 16.075C5.6 16.075 5.625 16.075 5.65 16.075H5.85V17.25C5.85 17.75 6.3 18.175 6.825 18.175C6.9 18.175 7.025 18.15 7.1 18.125L9.05 20.05C9.25 20.25 9.55 20.25 9.75 20.05C9.95 19.85 9.95 19.55 9.75 19.35L7.875 17.4C7.875 17.35 7.975 17.3 7.975 17.25V16.95C7.975 16.55 8.2 16.4 8.6 16.05H9.75C9.975 16.05 10.175 16.025 10.35 15.925C10.375 15.925 10.4 15.925 10.4 15.925C10.45 15.9 10.475 15.875 10.525 15.85C10.55 15.825 10.55 15.825 10.575 15.825L10.625 15.775L14.6 11.825C15.05 11.375 15.05 10.675 14.6 10.225C14.15 9.775 13.425 9.85 12.975 10.3L12.225 11.15H10.8V9.95C10.8 9.925 10.925 10.075 10.925 9.725H12.525C12.825 9.725 13.075 9.5 13.075 9.2C13.075 8.9 12.825 8.675 12.525 8.675H10.25C10.7 8.3 11.1 7.9 11.6 7.575L11.625 7.55C12.15 7.2 12.75 6.925 13.325 6.625C13.7 6.45 14.05 6.25 14.425 6.1C14.85 5.925 15.3 5.825 15.75 5.675C16.2 5.55 16.625 5.375 17.075 5.275C18.025 5.1 19 5 20 5C22.05 5 23.975 5.425 25.75 6.15C25.875 6.2 26 6.275 26.15 6.35C26.775 6.625 27.35 6.95 27.925 7.325C28.55 7.725 29.15 8.175 29.7 8.7H26.5C26.5 8.7 26.5 8.625 26.475 8.625C26.375 8.625 26.25 8.625 26.15 8.7L24.875 9.975C24.725 10.125 24.725 10.4 24.875 10.55C25.025 10.7 25.3 10.7 25.45 10.55L26.5 9.45L26.525 9.4H27.15C27.15 9.75 26.975 9.625 26.975 9.7V9.875C26.975 10.425 26.6 10.8 26.075 10.8H25.125C24.65 10.8 24.175 11.325 24.175 11.8V12.225H23.925C23.625 12.225 23.425 12.375 23.425 12.675C23.425 12.825 23.425 13.3 23.425 13.3H22.85C22.425 13.3 22.1 13.575 22.1 14C22.1 14.425 22.425 14.65 22.85 14.65C23.025 14.65 23.2 14.725 23.325 14.375L23.425 14.4L24.65 13.25H25.075L26.05 14.175C26.125 14.25 26.25 14.225 26.35 14.15C26.425 14.075 26.425 13.85 26.35 13.775L25.55 12.9H26.125L26.35 13.2C26.8 13.65 27.55 13.625 28 13.175L28.225 12.925H29.225C29.275 12.925 29.425 13.05 29.425 13.05V13.65L29.3 13.625H28.4C28.125 13.625 27.875 13.875 27.875 14.15C27.875 14.425 28.1 14.675 28.4 14.675H29.3H29.425V15.05C29.075 15.575 28.825 16.1 28.3 16.1H25.95C25.95 16.1 25.95 16.1 25.95 16.075L24.85 14.975C24.4 14.525 23.65 14.525 23.2 14.975L22.15 16.05V16.075H21.5C20.85 16.075 20.275 16.6 20.275 17.225V19.525C20.275 20.175 20.85 20.65 21.5 20.65H23.75C24.6 21 25.175 21.525 25.55 22.375V26.575C25.55 27.225 25.975 27.675 26.6 27.675H28.4C29.05 27.675 29.4 27.225 29.4 26.575V22.5L31.625 20.35L31.7 20.3L31.75 20.275H31.825C32 20.075 32.2 19.8 32.2 19.5V17.225C32.2 16.775 31.8 16.425 31.425 16.075H32.5C32.525 16.775 33.025 17.125 33.65 17.125H34.7C34.9 18.05 35 19.025 35 20C35 28.275 28.275 35 20 35ZM31.35 24.325C31.1 24.325 30.825 24.525 30.825 24.775V26.2C30.825 26.45 31.1 26.65 31.35 26.65C31.6 26.65 31.875 26.45 31.875 26.2V24.775C31.875 24.525 31.6 24.325 31.35 24.325ZM20.925 7.975C20.925 7.35 20.425 6.925 19.775 6.925H18.425C17.8 6.925 17.375 7.375 17.375 8C17.375 8.075 17.125 8.1 17.5 8.2V9.375C17.5 9.75 17.65 10.05 18.025 10.05C18.4 10.05 18.55 9.75 18.55 9.375V9.025H19.8C20.4 9.025 20.925 8.625 20.925 7.975Z" fill="#8F95B2"/>
</g>
</svg>
