<svg width="26" height="26" viewBox="0 0 26 26" fill="none" xmlns="http://www.w3.org/2000/svg">
<path d="M25.4426 16.2605C24.635 18.8967 23.0166 21.2111 20.8176 22.8743C18.8869 24.3274 16.5895 25.2136 14.1831 25.4335C11.7767 25.6534 9.35672 25.1983 7.19467 24.1192C5.03261 23.0401 3.2141 21.3798 1.94324 19.3246C0.672377 17.2694 -0.000524019 14.9007 6.11769e-05 12.4843C-0.00862678 9.66385 0.908261 6.91846 2.61006 4.66928C4.27323 2.47027 6.5876 0.851837 9.22381 0.0442811C9.39756 -0.0092185 9.5826 -0.0143415 9.75904 0.0294632C9.93549 0.0732679 10.0966 0.164343 10.2252 0.292893C10.3537 0.421444 10.4448 0.582606 10.4886 0.759047C10.5324 0.935489 10.5273 1.12053 10.4738 1.29428C9.89736 3.20107 9.84903 5.22852 10.334 7.16061C10.8189 9.0927 11.8189 10.857 13.2275 12.2656C14.6361 13.6742 16.4004 14.6742 18.3325 15.1591C20.2646 15.6441 22.292 15.5957 24.1988 15.0193C24.3726 14.9658 24.5576 14.9607 24.734 15.0045C24.9105 15.0483 25.0716 15.1393 25.2002 15.2679C25.3287 15.3964 25.4198 15.5576 25.4636 15.734C25.5074 15.9105 25.5023 16.0955 25.4488 16.2693L25.4426 16.2605Z" fill="#0C191E"/>
</svg>
