<svg width="32" height="32" viewBox="0 0 32 32" fill="none" xmlns="http://www.w3.org/2000/svg">
<path fill-rule="evenodd" clip-rule="evenodd" d="M12.3656 4.44238C12.3656 6.617 14.0863 8.37988 16.2088 8.37988C18.3314 8.37988 20.052 6.617 20.052 4.44238C20.052 2.26776 18.3314 0.504883 16.2088 0.504883C14.0863 0.504883 12.3656 2.26776 12.3656 4.44238ZM5.96086 14.9417V25.443H8.52236V28.0674C8.52236 28.7926 7.94851 29.3805 7.24064 29.3805H4.67915C3.972 29.3805 3.39744 28.7919 3.39744 28.0674V21.5055H0.835938V13.6305C0.835938 12.1796 1.98314 11.0042 3.39744 11.0042H7.27523C6.46047 12.1048 5.96086 13.4593 5.96086 14.9417ZM18.7703 32.0049H13.6473C12.9394 32.0049 12.3656 31.417 12.3656 30.6917V22.8167H8.52236V14.9417C8.52236 12.7671 10.243 11.0042 12.3656 11.0042H20.052C22.1745 11.0042 23.8952 12.7671 23.8952 14.9417V22.8167H20.052V30.6917C20.052 31.417 19.4782 32.0049 18.7703 32.0049ZM3.39844 7.06771C3.39844 8.51764 4.54569 9.69304 5.9609 9.69304C7.37611 9.69304 8.52336 8.51764 8.52336 7.06771C8.52336 5.61778 7.37611 4.44238 5.9609 4.44238C4.54569 4.44238 3.39844 5.61778 3.39844 7.06771ZM26.4567 25.443V14.9417C26.4567 13.4593 25.9571 12.1048 25.1423 11.0042H29.0201C30.4344 11.0042 31.5816 12.1796 31.5816 13.6305V21.5055H29.0201V28.0674C29.0201 28.7926 28.4463 29.3805 27.7384 29.3805H25.1769C24.469 29.3805 23.8952 28.7926 23.8952 28.0674V25.443H26.4567ZM29.0192 7.06771C29.0192 8.51764 27.8719 9.69304 26.4567 9.69304C25.0415 9.69304 23.8943 8.51764 23.8943 7.06771C23.8943 5.61778 25.0415 4.44238 26.4567 4.44238C27.8719 4.44238 29.0192 5.61778 29.0192 7.06771Z" fill="#8F95B2"/>
</svg>
