<svg width="40" height="40" viewBox="0 0 40 40" fill="none" xmlns="http://www.w3.org/2000/svg">
<g opacity="0.4">
<path fill-rule="evenodd" clip-rule="evenodd" d="M37.5 20H33.85L29.6 13.625L29.55 13.65C29.1 12.975 28.375 12.5 27.5 12.5C26.425 12.5 25.525 13.175 25.175 14.125H25.15L20.925 25.4L17.475 4.6H17.425C17.225 3.425 16.25 2.5 15 2.5C13.975 2.5 13.075 3.125 12.7 4.025L5.85 20H2.5C1.125 20 0 21.125 0 22.5C0 23.875 1.125 25 2.5 25H7.5C8.525 25 9.425 24.375 9.8 23.475L13.925 13.825L17.525 35.4H17.575C17.775 36.575 18.75 37.5 20 37.5C21.075 37.5 21.975 36.825 22.325 35.875H22.35L28.125 20.45L30.425 23.9L30.475 23.875C30.9 24.525 31.625 25 32.5 25H37.5C38.875 25 40 23.875 40 22.5C40 21.125 38.875 20 37.5 20Z" fill="#8F95B2"/>
</g>
</svg>
