<svg width="40" height="40" viewBox="0 0 40 40" fill="none" xmlns="http://www.w3.org/2000/svg">
<g opacity="0.4">
<path fill-rule="evenodd" clip-rule="evenodd" d="M35 25H19.3L18.475 22.5H32.5C33.475 22.5 34.3 21.925 34.725 21.1H34.75L39.75 11.1H39.725C39.875 10.775 40 10.4 40 10C40 8.625 38.875 7.5 37.5 7.5H13.475L12.375 4.2H12.35C12 3.225 11.1 2.5 10 2.5H2.5C1.125 2.5 0 3.625 0 5C0 6.375 1.125 7.5 2.5 7.5H8.2L14.025 25H10C7.25 25 5 27.25 5 30C5 32.75 7.25 35 10 35C12.75 35 15 32.75 15 30H30C30 32.75 32.25 35 35 35C37.75 35 40 32.75 40 30C40 27.25 37.75 25 35 25ZM15.125 12.5H33.45L30.95 17.5H16.8L15.125 12.5Z" fill="#8F95B2"/>
</g>
</svg>
