<svg width="27" height="27" viewBox="0 0 27 27" fill="none" xmlns="http://www.w3.org/2000/svg">
<path d="M13.3319 22.6667C13.6855 22.6667 14.0246 22.8071 14.2747 23.0572C14.5247 23.3072 14.6652 23.6464 14.6652 24V25.3333C14.6652 25.687 14.5247 26.0261 14.2747 26.2761C14.0246 26.5262 13.6855 26.6667 13.3319 26.6667C12.9782 26.6667 12.6391 26.5262 12.389 26.2761C12.139 26.0261 11.9985 25.687 11.9985 25.3333V24C11.9985 23.6464 12.139 23.3072 12.389 23.0572C12.6391 22.8071 12.9782 22.6667 13.3319 22.6667ZM21.8172 19.9333L22.7599 20.876C23.0027 21.1275 23.1371 21.4643 23.1341 21.8139C23.131 22.1635 22.9908 22.4979 22.7436 22.7451C22.4964 22.9923 22.162 23.1325 21.8124 23.1356C21.4628 23.1386 21.126 23.0042 20.8745 22.7613L19.9319 21.8187C19.689 21.5672 19.5546 21.2304 19.5576 20.8808C19.5607 20.5312 19.7009 20.1968 19.9481 19.9496C20.1953 19.7024 20.5297 19.5621 20.8793 19.5591C21.2289 19.5561 21.5657 19.6905 21.8172 19.9333ZM4.84652 19.9333C5.08647 19.6942 5.40843 19.5554 5.74703 19.545C6.08563 19.5347 6.41547 19.6536 6.66956 19.8777C6.92365 20.1017 7.08293 20.4141 7.11505 20.7513C7.14718 21.0885 7.04974 21.4253 6.84252 21.6933L6.73186 21.8187L5.78919 22.7613C5.54925 23.0005 5.22728 23.1393 4.88868 23.1496C4.55008 23.16 4.22024 23.041 3.96615 22.817C3.71206 22.593 3.55278 22.2806 3.52066 21.9434C3.48853 21.6061 3.58597 21.2693 3.79319 21.0013L3.90386 20.876L4.84652 19.9333ZM13.3319 5.33333C15.4536 5.33333 17.4884 6.17619 18.9887 7.67648C20.489 9.17677 21.3319 11.2116 21.3319 13.3333C21.3319 15.4551 20.489 17.4899 18.9887 18.9902C17.4884 20.4905 15.4536 21.3333 13.3319 21.3333C11.2101 21.3333 9.17529 20.4905 7.675 18.9902C6.17471 17.4899 5.33186 15.4551 5.33186 13.3333C5.33186 11.2116 6.17471 9.17677 7.675 7.67648C9.17529 6.17619 11.2101 5.33333 13.3319 5.33333ZM2.66519 12C3.00503 12.0004 3.3319 12.1305 3.57901 12.3638C3.82613 12.5971 3.97484 12.9159 3.99475 13.2552C4.01467 13.5944 3.90429 13.9285 3.68617 14.1891C3.46805 14.4497 3.15865 14.6172 2.82119 14.6573L2.66519 14.6667H1.33186C0.992017 14.6663 0.665147 14.5362 0.418032 14.3029C0.170917 14.0696 0.0222095 13.7507 0.00229338 13.4115C-0.0176228 13.0722 0.0927557 12.7382 0.310876 12.4776C0.528996 12.217 0.838395 12.0495 1.17586 12.0093L1.33186 12H2.66519ZM25.3319 12C25.6855 12 26.0246 12.1405 26.2747 12.3905C26.5247 12.6406 26.6652 12.9797 26.6652 13.3333C26.6652 13.687 26.5247 14.0261 26.2747 14.2761C26.0246 14.5262 25.6855 14.6667 25.3319 14.6667H23.9985C23.6449 14.6667 23.3058 14.5262 23.0557 14.2761C22.8057 14.0261 22.6652 13.687 22.6652 13.3333C22.6652 12.9797 22.8057 12.6406 23.0557 12.3905C23.3058 12.1405 23.6449 12 23.9985 12H25.3319ZM3.90386 3.90533C4.13345 3.67576 4.43891 3.53786 4.76295 3.51748C5.08698 3.49711 5.40732 3.59566 5.66386 3.79467L5.78919 3.90533L6.73186 4.848C6.97099 5.08794 7.10982 5.40991 7.12016 5.74851C7.1305 6.08711 7.01157 6.41695 6.78752 6.67104C6.56348 6.92513 6.25112 7.08441 5.91389 7.11653C5.57666 7.14866 5.23984 7.05122 4.97186 6.844L4.84652 6.73333L3.90386 5.79067C3.65389 5.54063 3.51347 5.20155 3.51347 4.848C3.51347 4.49445 3.65389 4.15537 3.90386 3.90533ZM22.7599 3.90533C23.0098 4.15537 23.1502 4.49445 23.1502 4.848C23.1502 5.20155 23.0098 5.54063 22.7599 5.79067L21.8172 6.73333C21.6942 6.86068 21.5471 6.96226 21.3844 7.03213C21.2217 7.10201 21.0468 7.13879 20.8697 7.14033C20.6927 7.14187 20.5171 7.10814 20.3533 7.0411C20.1894 6.97405 20.0405 6.87505 19.9153 6.74986C19.7901 6.62467 19.6911 6.4758 19.6241 6.31194C19.5571 6.14808 19.5233 5.9725 19.5249 5.79546C19.5264 5.61843 19.5632 5.44347 19.6331 5.28079C19.7029 5.11812 19.8045 4.971 19.9319 4.848L20.8745 3.90533C21.1246 3.65537 21.4636 3.51495 21.8172 3.51495C22.1707 3.51495 22.5098 3.65537 22.7599 3.90533ZM13.3319 0C13.6855 0 14.0246 0.140476 14.2747 0.390524C14.5247 0.640573 14.6652 0.979711 14.6652 1.33333V2.66667C14.6652 3.02029 14.5247 3.35943 14.2747 3.60948C14.0246 3.85952 13.6855 4 13.3319 4C12.9782 4 12.6391 3.85952 12.389 3.60948C12.139 3.35943 11.9985 3.02029 11.9985 2.66667V1.33333C11.9985 0.979711 12.139 0.640573 12.389 0.390524C12.6391 0.140476 12.9782 0 13.3319 0Z" fill="#F7FC24"/>
</svg>
