<svg width="25" height="19" viewBox="0 0 25 19" fill="none" xmlns="http://www.w3.org/2000/svg">
<mask id="mask0_961_409" style="mask-type:luminance" maskUnits="userSpaceOnUse" x="0" y="0" width="25" height="19">
<path d="M0.9375 1.60938C0.9375 1.05709 1.38522 0.609375 1.9375 0.609375H23.9375C24.4898 0.609375 24.9375 1.05709 24.9375 1.60938V17.6094C24.9375 18.1617 24.4898 18.6094 23.9375 18.6094H1.9375C1.38522 18.6094 0.9375 18.1617 0.9375 17.6094V1.60938Z" fill="white"/>
</mask>
<g mask="url(#mask0_961_409)">
<path fill-rule="evenodd" clip-rule="evenodd" d="M1.9375 0.609375C1.38522 0.609375 0.9375 1.05709 0.9375 1.60938V17.6094C0.9375 18.1617 1.38522 18.6094 1.9375 18.6094H23.9375C24.4898 18.6094 24.9375 18.1617 24.9375 17.6094V1.60938C24.9375 1.05709 24.4898 0.609375 23.9375 0.609375H1.9375Z" fill="#2E42A5"/>
<mask id="mask1_961_409" style="mask-type:luminance" maskUnits="userSpaceOnUse" x="0" y="0" width="25" height="19">
<path fill-rule="evenodd" clip-rule="evenodd" d="M1.9375 0.609375C1.38522 0.609375 0.9375 1.05709 0.9375 1.60938V17.6094C0.9375 18.1617 1.38522 18.6094 1.9375 18.6094H23.9375C24.4898 18.6094 24.9375 18.1617 24.9375 17.6094V1.60938C24.9375 1.05709 24.4898 0.609375 23.9375 0.609375H1.9375Z" fill="white"/>
</mask>
<g mask="url(#mask1_961_409)">
<path d="M0.9375 1.60937C0.9375 1.05709 1.38522 0.609375 1.9375 0.609375H13.4375C13.9898 0.609375 14.4375 1.05709 14.4375 1.60938V10.1094C14.4375 10.6617 13.9898 11.1094 13.4375 11.1094H1.9375C1.38522 11.1094 0.9375 10.6617 0.9375 10.1094V1.60937Z" fill="#2B409A"/>
<mask id="mask2_961_409" style="mask-type:luminance" maskUnits="userSpaceOnUse" x="0" y="0" width="15" height="12">
<path d="M0.9375 1.60937C0.9375 1.05709 1.38522 0.609375 1.9375 0.609375H13.4375C13.9898 0.609375 14.4375 1.05709 14.4375 1.60938V10.1094C14.4375 10.6617 13.9898 11.1094 13.4375 11.1094H1.9375C1.38522 11.1094 0.9375 10.6617 0.9375 10.1094V1.60937Z" fill="white"/>
</mask>
<g mask="url(#mask2_961_409)">
<path d="M0.69183 9.32685C0.116853 9.80098 0.243885 10.7148 0.926378 11.0142L1.85561 11.4217C2.19547 11.5708 2.58993 11.5194 2.88023 11.2882L14.4226 2.09599C14.4794 2.05071 14.5312 1.99936 14.5769 1.94285L14.9591 1.47064C15.4492 0.86513 15.0893 -0.0434104 14.3176 -0.149201L13.3382 -0.283451C13.0581 -0.321843 12.7749 -0.239898 12.5586 -0.057893L7.96308 3.80877L3.99071 6.60659L0.69183 9.32685Z" fill="#F7FCFF"/>
<path d="M0.746802 10.5147C0.320259 10.8726 0.400173 11.5503 0.898252 11.7991V11.7991C1.1764 11.9381 1.51072 11.897 1.74691 11.6948L14.0891 1.12833C14.5775 0.710205 14.2818 -0.0898438 13.6388 -0.0898438V-0.0898438C13.4761 -0.0898438 13.3186 -0.0325123 13.1939 0.0720839L0.746802 10.5147Z" fill="#F50100"/>
<path d="M14.688 9.32685C15.2629 9.80097 15.1359 10.7148 14.4534 11.0142L13.5242 11.4217C13.1843 11.5708 12.7898 11.5194 12.4995 11.2882L0.957221 2.09599C0.900359 2.05071 0.848605 1.99936 0.802874 1.94285L0.420696 1.47064C-0.0693625 0.86513 0.29045 -0.043412 1.06221 -0.149203L2.04155 -0.283451C2.32163 -0.321843 2.60487 -0.239898 2.82118 -0.0578937L7.4167 3.80877L11.3891 6.60659L14.688 9.32685Z" fill="#F7FCFF"/>
<path d="M14.9469 10.2551C15.3714 10.6153 15.2897 11.2921 14.7917 11.541V11.541C14.5119 11.6808 14.1755 11.639 13.9385 11.4349L8.45504 6.7145C8.3544 6.62787 8.23751 6.56215 8.1112 6.52117L6.68997 6.06012C6.5747 6.02272 6.46718 5.96469 6.37266 5.88884L0.634191 1.28371C0.143329 0.889788 0.421871 0.0976562 1.05125 0.0976562V0.0976562C1.2003 0.0976562 1.34504 0.147627 1.46234 0.239579L8.50833 5.76286C8.59325 5.82943 8.68839 5.88182 8.79005 5.91799L10.4179 6.49718C10.5318 6.53772 10.6375 6.59858 10.7297 6.67682L14.9469 10.2551Z" fill="#F50100"/>
<path fill-rule="evenodd" clip-rule="evenodd" d="M8.42979 1.35938C8.42979 0.945162 8.094 0.609375 7.67979 0.609375V0.609375C7.26558 0.609375 6.92979 0.945162 6.92979 1.35938V4.10938C6.92979 4.66166 6.48207 5.10938 5.92979 5.10938H1.69141C1.27719 5.10938 0.941406 5.44516 0.941406 5.85938V5.85938C0.941406 6.27359 1.27719 6.60938 1.69141 6.60938H5.92979C6.48207 6.60938 6.92979 7.05709 6.92979 7.60938V10.3594C6.92979 10.7736 7.26558 11.1094 7.67979 11.1094V11.1094C8.094 11.1094 8.42979 10.7736 8.42979 10.3594V7.60937C8.42979 7.05709 8.8775 6.60938 9.42979 6.60938H13.6914C14.1056 6.60938 14.4414 6.27359 14.4414 5.85938V5.85938C14.4414 5.44516 14.1056 5.10938 13.6914 5.10938H9.42979C8.87751 5.10938 8.42979 4.66166 8.42979 4.10937V1.35938Z" fill="#F50100"/>
<mask id="mask3_961_409" style="mask-type:luminance" maskUnits="userSpaceOnUse" x="-1" y="-1" width="17" height="14">
<path d="M-0.558594 0.109375C-0.558594 -0.44291 -0.110878 -0.890625 0.441406 -0.890625H14.9414C15.4937 -0.890625 15.9414 -0.44291 15.9414 0.109375V11.6094C15.9414 12.1617 15.4937 12.6094 14.9414 12.6094H0.441406C-0.110878 12.6094 -0.558594 12.1617 -0.558594 11.6094V0.109375Z" fill="white"/>
<path fill-rule="evenodd" clip-rule="evenodd" d="M8.42979 1.35938C8.42979 0.945162 8.094 0.609375 7.67979 0.609375V0.609375C7.26558 0.609375 6.92979 0.945162 6.92979 1.35938V4.10938C6.92979 4.66166 6.48207 5.10938 5.92979 5.10938H1.69141C1.27719 5.10938 0.941406 5.44516 0.941406 5.85938V5.85938C0.941406 6.27359 1.27719 6.60938 1.69141 6.60938H5.92979C6.48207 6.60938 6.92979 7.05709 6.92979 7.60938V10.3594C6.92979 10.7736 7.26558 11.1094 7.67979 11.1094V11.1094C8.094 11.1094 8.42979 10.7736 8.42979 10.3594V7.60937C8.42979 7.05709 8.8775 6.60938 9.42979 6.60938H13.6914C14.1056 6.60938 14.4414 6.27359 14.4414 5.85938V5.85938C14.4414 5.44516 14.1056 5.10938 13.6914 5.10938H9.42979C8.87751 5.10938 8.42979 4.66166 8.42979 4.10937V1.35938Z" fill="black"/>
</mask>
<g mask="url(#mask3_961_409)">
<path d="M5.92979 0.609375C6.48207 0.609375 6.92979 0.16166 6.92979 -0.390625V-0.515625H6.80479C6.2525 -0.515625 5.80479 -0.0679097 5.80479 0.484375V0.609375H5.92979ZM8.42979 -0.390625C8.42979 0.16166 8.8775 0.609375 9.42979 0.609375H9.55478V0.484375C9.55478 -0.0679097 9.10707 -0.515625 8.55478 -0.515625H8.42979V-0.390625ZM7.92979 5.10938C7.3775 5.10938 6.92979 5.55709 6.92979 6.10938V6.23438H7.05479C7.60707 6.23438 8.05479 5.78666 8.05479 5.23437V5.10938H7.92979ZM-0.0585937 5.10938C0.493691 5.10938 0.941406 4.66166 0.941406 4.10937V3.98438H0.816406C0.264122 3.98438 -0.183594 4.43209 -0.183594 4.98438V5.10938H-0.0585937ZM0.941406 7.60937C0.941406 7.05709 0.493691 6.60938 -0.0585938 6.60938H-0.183594V6.73438C-0.183594 7.28666 0.264122 7.73438 0.816406 7.73438H0.941406V7.60937ZM6.92979 5.60938C6.92979 6.16166 7.3775 6.60938 7.92979 6.60938H8.05479V6.48437C8.05479 5.93209 7.60707 5.48438 7.05479 5.48438H6.92979V5.60938ZM6.92979 12.1094C6.92979 11.5571 6.48207 11.1094 5.92979 11.1094H5.80479V11.2344C5.80479 11.7867 6.2525 12.2344 6.80479 12.2344H6.92979V12.1094ZM9.42979 11.1094C8.8775 11.1094 8.42979 11.5571 8.42979 12.1094V12.2344H8.55478C9.10707 12.2344 9.55478 11.7867 9.55478 11.2344V11.1094H9.42979ZM7.42979 6.60938C7.98207 6.60938 8.42979 6.16166 8.42979 5.60937V5.48438H8.30479C7.7525 5.48438 7.30479 5.93209 7.30479 6.48438V6.60938H7.42979ZM15.4414 6.60938C14.8891 6.60938 14.4414 7.05709 14.4414 7.60938V7.73438H14.5664C15.1187 7.73438 15.5664 7.28666 15.5664 6.73437V6.60938H15.4414ZM14.4414 4.10938C14.4414 4.66166 14.8891 5.10938 15.4414 5.10938H15.5664V4.98437C15.5664 4.43209 15.1187 3.98438 14.5664 3.98438H14.4414V4.10938ZM8.42979 6.10937C8.42979 5.55709 7.98207 5.10938 7.42979 5.10938H7.30479V5.23438C7.30479 5.78666 7.7525 6.23438 8.30479 6.23438H8.42979V6.10937ZM6.92979 0.984375C6.92979 1.39859 7.26558 1.73438 7.67979 1.73438V1.73438C8.094 1.73438 8.42979 1.39859 8.42979 0.984375V-0.515625H6.92979V0.984375ZM8.05479 5.10938V1.60937C8.05479 1.05709 7.60707 0.609375 7.05479 0.609375H5.80479V4.10938C5.80479 4.66166 6.2525 5.10938 6.80479 5.10938H8.05479ZM0.941406 5.23438C0.941406 5.78666 1.38912 6.23438 1.94141 6.23438H6.92979V4.98437C6.92979 4.43209 6.48207 3.98438 5.92979 3.98438H0.941406V5.23438ZM1.31641 6.60938C1.73062 6.60938 2.06641 6.27359 2.06641 5.85938V5.85938C2.06641 5.44516 1.73062 5.10938 1.31641 5.10938H-0.183594V6.60938H1.31641ZM6.92979 5.48438H1.94141C1.38912 5.48438 0.941406 5.93209 0.941406 6.48438V7.73438H5.92979C6.48207 7.73438 6.92979 7.28666 6.92979 6.73437V5.48438ZM7.05479 11.1094C7.60707 11.1094 8.05479 10.6617 8.05479 10.1094V6.60938H6.80479C6.2525 6.60938 5.80479 7.05709 5.80479 7.60938V11.1094H7.05479ZM8.42979 10.7344C8.42979 10.3202 8.094 9.98438 7.67979 9.98438V9.98438C7.26558 9.98438 6.92979 10.3202 6.92979 10.7344V12.2344H8.42979V10.7344ZM7.30479 6.60938V10.1094C7.30479 10.6617 7.7525 11.1094 8.30479 11.1094H9.55478V7.60937C9.55478 7.05709 9.10707 6.60938 8.55478 6.60938H7.30479ZM14.4414 6.48437C14.4414 5.93209 13.9937 5.48438 13.4414 5.48438H8.42979V6.73438C8.42979 7.28666 8.8775 7.73438 9.42979 7.73438H14.4414V6.48437ZM14.0664 5.10938C13.6522 5.10938 13.3164 5.44516 13.3164 5.85938V5.85938C13.3164 6.27359 13.6522 6.60938 14.0664 6.60938H15.5664V5.10938H14.0664ZM8.42979 6.23438H13.4414C13.9937 6.23438 14.4414 5.78666 14.4414 5.23437V3.98438H9.42979C8.87751 3.98438 8.42979 4.43209 8.42979 4.98438V6.23438ZM8.30479 0.609375C7.7525 0.609375 7.30479 1.05709 7.30479 1.60938V5.10938H8.55478C9.10707 5.10938 9.55478 4.66166 9.55478 4.10937V0.609375H8.30479Z" fill="#F7FCFF"/>
</g>
</g>
</g>
<path d="M7.95064 16.2255C7.80331 16.0894 7.57605 16.0894 7.42872 16.2255V16.2255C7.17257 16.4622 6.75891 16.263 6.78427 15.9152V15.9152C6.79886 15.7151 6.65717 15.5374 6.45886 15.5071V15.5071C6.11409 15.4545 6.01193 15.0068 6.2997 14.8098V14.8098C6.46522 14.6964 6.5158 14.4749 6.41584 14.3009V14.3009C6.24206 13.9985 6.52831 13.6396 6.8618 13.7417V13.7417C7.05362 13.8004 7.25837 13.7018 7.33204 13.5152V13.5152C7.46012 13.1908 7.91924 13.1908 8.04732 13.5152V13.5152C8.12099 13.7018 8.32573 13.8004 8.51755 13.7417V13.7417C8.85105 13.6396 9.13731 13.9985 8.96352 14.3009V14.3009C8.86357 14.4749 8.91414 14.6964 9.07966 14.8098V14.8098C9.36743 15.0068 9.26526 15.4545 8.92048 15.5071V15.5071C8.72216 15.5374 8.58047 15.7151 8.59507 15.9152V15.9152C8.62045 16.263 8.20679 16.4622 7.95064 16.2255V16.2255Z" fill="#F7FCFF"/>
<path d="M17.6169 10.5201C17.5186 10.4294 17.3671 10.4294 17.2689 10.5201V10.5201C17.0982 10.6779 16.8224 10.5451 16.8393 10.3133V10.3133C16.849 10.1799 16.7546 10.0614 16.6224 10.0412V10.0412C16.3925 10.0061 16.3244 9.70768 16.5162 9.57633V9.57633C16.6266 9.50077 16.6603 9.35306 16.5937 9.2371V9.2371C16.4778 9.0355 16.6686 8.79617 16.891 8.86426V8.86426C17.0188 8.90342 17.1553 8.83769 17.2045 8.71329V8.71329C17.2898 8.49702 17.5959 8.49702 17.6813 8.71329V8.71329C17.7304 8.83769 17.8669 8.90342 17.9948 8.86426V8.86426C18.2171 8.79617 18.408 9.0355 18.2921 9.2371V9.2371C18.2255 9.35306 18.2592 9.50077 18.3695 9.57633V9.57633C18.5614 9.70768 18.4933 10.0061 18.2634 10.0412V10.0412C18.1312 10.0614 18.0368 10.1799 18.0465 10.3133V10.3133C18.0634 10.5451 17.7876 10.6779 17.6169 10.5201V10.5201Z" fill="#F7FCFF"/>
<path d="M19.1169 4.52015C19.0186 4.42938 18.8671 4.42938 18.7689 4.52015V4.52015C18.5982 4.67795 18.3224 4.54515 18.3393 4.31325V4.31325C18.349 4.17987 18.2546 4.06141 18.1224 4.04122V4.04122C17.8925 4.0061 17.8244 3.70768 18.0162 3.57632V3.57632C18.1266 3.50076 18.1603 3.35305 18.0937 3.23709V3.23709C17.9778 3.0355 18.1686 2.79619 18.391 2.86428V2.86428C18.5188 2.90344 18.6553 2.83771 18.7045 2.71332V2.71332C18.7898 2.49704 19.0959 2.49704 19.1813 2.71332V2.71332C19.2304 2.83771 19.3669 2.90344 19.4948 2.86428V2.86428C19.7171 2.79619 19.908 3.0355 19.7921 3.23709V3.23709C19.7255 3.35305 19.7592 3.50076 19.8695 3.57632V3.57632C20.0614 3.70768 19.9933 4.0061 19.7634 4.04122V4.04122C19.6312 4.06141 19.5368 4.17987 19.5465 4.31325V4.31325C19.5634 4.54515 19.2876 4.67795 19.1169 4.52015V4.52015Z" fill="#F7FCFF"/>
<path d="M22.863 7.52015C22.7647 7.42938 22.6132 7.42938 22.515 7.52015V7.52015C22.3443 7.67795 22.0685 7.54515 22.0854 7.31325V7.31325C22.0951 7.17987 22.0007 7.06141 21.8685 7.04122V7.04122C21.6386 7.0061 21.5705 6.70768 21.7623 6.57632V6.57632C21.8727 6.50076 21.9064 6.35305 21.8398 6.23709V6.23709C21.7239 6.0355 21.9147 5.79619 22.1371 5.86428V5.86428C22.2649 5.90344 22.4014 5.83771 22.4505 5.71332V5.71332C22.5359 5.49704 22.842 5.49704 22.9274 5.71332V5.71332C22.9765 5.83771 23.113 5.90344 23.2409 5.86428V5.86428C23.4632 5.79619 23.6541 6.0355 23.5382 6.23709V6.23709C23.4716 6.35305 23.5053 6.50076 23.6156 6.57632V6.57632C23.8075 6.70768 23.7394 7.0061 23.5095 7.04122V7.04122C23.3773 7.06141 23.2828 7.17987 23.2926 7.31325V7.31325C23.3095 7.54515 23.0337 7.67795 22.863 7.52015V7.52015Z" fill="#F7FCFF"/>
<path d="M19.863 17.2701C19.7647 17.1794 19.6132 17.1794 19.515 17.2701V17.2701C19.3442 17.4279 19.0685 17.2951 19.0854 17.0633V17.0633C19.0951 16.9299 19.0007 16.8114 18.8685 16.7912V16.7912C18.6386 16.7561 18.5705 16.4577 18.7623 16.3263V16.3263C18.8727 16.2508 18.9064 16.1031 18.8398 15.9871V15.9871C18.7239 15.7855 18.9147 15.5462 19.1371 15.6143V15.6143C19.2649 15.6534 19.4014 15.5877 19.4506 15.4633V15.4633C19.5359 15.247 19.842 15.247 19.9274 15.4633V15.4633C19.9765 15.5877 20.113 15.6534 20.2409 15.6143V15.6143C20.4632 15.5462 20.6541 15.7855 20.5382 15.9871V15.9871C20.4716 16.1031 20.5053 16.2508 20.6156 16.3263V16.3263C20.8075 16.4577 20.7394 16.7561 20.5095 16.7912V16.7912C20.3773 16.8114 20.2828 16.9299 20.2926 17.0633V17.0633C20.3095 17.2951 20.0337 17.4279 19.863 17.2701V17.2701Z" fill="#F7FCFF"/>
<path d="M22.4523 11.3685C22.367 11.3237 22.2651 11.3237 22.1798 11.3685V11.3685C21.9651 11.4814 21.714 11.299 21.755 11.0599V11.0599C21.7713 10.9649 21.7399 10.868 21.6709 10.8008V10.8008C21.4971 10.6314 21.593 10.3363 21.8331 10.3014V10.3014C21.9285 10.2876 22.0109 10.2277 22.0535 10.1413V10.1413C22.1609 9.92371 22.4712 9.92371 22.5785 10.1413V10.1413C22.6212 10.2277 22.7036 10.2876 22.7989 10.3014V10.3014C23.0391 10.3363 23.135 10.6314 22.9612 10.8008V10.8008C22.8922 10.868 22.8607 10.9649 22.877 11.0599V11.0599C22.9181 11.299 22.667 11.4814 22.4523 11.3685V11.3685Z" fill="#F7FCFF"/>
</g>
</svg>
