<svg width="572" height="690" viewBox="0 0 572 690" fill="none" xmlns="http://www.w3.org/2000/svg">
<path d="M570.304 509.311L533.066 609.694C528.475 622.374 516.743 630.827 505.52 630.827H380.543C367.79 630.827 358.098 622.374 350.957 609.694L308.617 493.989C307.087 489.763 303.006 487.121 298.925 487.121H272.399V465.459H298.925C312.188 465.459 323.411 473.913 328.512 486.593L370.851 602.297C372.381 606.524 379.013 609.165 380.543 609.165H505.52C508.071 609.165 512.152 606.524 513.682 602.297L532.046 558.974H397.887V537.312H537.657L550.41 501.914C551.43 498.744 551.43 495.046 549.39 491.876C547.349 488.706 544.289 487.121 540.718 487.121H374.422V465.459H540.718C550.92 465.459 560.612 470.743 566.734 479.724C572.345 492.404 573.365 499.273 570.304 509.311ZM368.81 127.856C362.179 122.573 356.568 118.346 348.406 114.648L522.864 50.1914L396.356 157.971C388.705 146.876 380.033 136.309 368.81 127.856ZM408.089 213.974C420.332 246.73 439.206 273.147 463.691 302.205C473.893 308.545 486.136 318.055 500.929 328.093C508.071 332.848 512.152 340.773 511.642 349.227L511.131 391.493C511.131 395.191 510.111 398.89 508.071 402.588L502.46 418.438C492.257 429.533 480.525 436.401 467.772 436.401H430.534L430.024 432.703C409.109 410.513 389.215 392.021 361.159 379.87C336.673 368.247 310.148 365.077 285.662 362.435C254.035 407.871 237.712 461.233 237.712 516.707C237.712 558.446 246.894 600.712 264.238 636.639C269.849 648.79 276.48 660.413 285.662 671.508L295.355 690L274.95 688.415C240.773 687.358 211.696 679.962 175.988 666.225C135.179 648.79 98.9616 621.845 69.8853 586.976C65.8044 582.221 62.2337 577.466 58.1528 572.182H57.6427V571.654C20.4045 520.406 0 458.063 0 394.135C0 329.678 19.8944 268.392 57.1325 216.616C90.7999 170.651 137.22 135.253 189.761 116.233C185.17 77.6646 200.474 38.5681 230.57 14.7933L248.934 0L248.424 23.7749C246.384 51.2481 257.096 78.1929 276.48 96.6845C287.703 107.251 301.986 114.119 317.289 118.874C331.572 124.686 346.876 130.498 359.628 141.064C384.114 164.311 398.907 194.426 408.089 213.974ZM86.2089 576.937C112.735 604.41 146.912 629.77 184.66 646.149C207.615 656.187 231.591 663.055 256.076 665.168C252.505 658.828 249.444 652.488 246.384 646.149C227.51 605.467 217.818 563.729 217.818 516.707C217.818 466.516 232.101 409.456 264.238 363.492C161.195 375.115 83.6583 460.704 80.0875 564.786C81.6179 568.484 83.6584 570.069 86.2089 576.937ZM312.188 138.951C293.314 132.611 276.48 125.743 262.197 112.534C244.343 95.6279 232.611 72.3813 228.53 47.5498C216.287 68.683 206.595 96.1562 213.227 122.573C214.247 129.441 216.287 136.309 219.348 142.649L200.984 152.159C198.943 147.404 196.903 142.121 195.373 137.366C147.932 155.858 105.593 187.557 74.4763 234.051C39.7887 277.374 21.4247 333.905 21.4247 394.135C21.4247 444.855 35.1978 494.518 60.7034 537.841C67.8449 489.763 89.2695 444.855 122.937 413.155C154.054 379.87 186.701 358.737 225.469 348.698C218.838 345 213.737 344.472 207.105 336.547C182.62 315.413 168.337 283.714 168.337 253.599H189.251C189.251 277.374 200.984 303.262 220.368 322.282C234.141 331.792 253.015 338.66 278.521 345V340.773C280.051 340.773 281.581 343.415 283.112 341.83C310.658 344.472 341.264 347.642 369.831 361.378C397.887 374.058 420.332 393.078 439.716 415.796H467.262C474.914 415.796 480.015 412.626 480.525 407.871L489.707 392.021L490.217 349.755C490.217 348.698 489.707 347.642 488.687 346.585C474.914 335.49 459.61 325.452 448.388 313.828C421.862 286.884 401.458 256.24 388.195 222.956C376.462 191.784 362.179 171.179 346.366 158.499C336.163 149.518 323.411 144.234 312.188 138.951ZM408.089 645.62C419.822 645.62 429.514 655.658 429.514 667.81C429.514 679.962 419.822 690 408.089 690C396.356 690 389.215 679.962 389.215 667.81C389.215 655.658 395.846 645.62 408.089 645.62ZM478.995 645.62C490.727 645.62 500.419 655.658 500.419 667.81C500.419 679.962 490.727 690 478.995 690C467.262 690 457.57 679.962 457.57 667.81C457.57 655.658 467.262 645.62 478.995 645.62Z" fill="#8F95B2" fill-opacity="0.16"/>
</svg>
