<svg width="133" height="161" viewBox="0 0 133 161" fill="none" xmlns="http://www.w3.org/2000/svg">
<path d="M132.606 118.839L123.947 142.262C122.88 145.221 120.152 147.193 117.542 147.193H88.4829C85.5177 147.193 83.2641 145.221 81.6035 142.262L71.7589 115.264C71.4031 114.278 70.4542 113.662 69.5053 113.662H63.3376V108.607H69.5053C72.5892 108.607 75.1986 110.58 76.3847 113.538L86.2293 140.536C86.5851 141.522 88.1271 142.139 88.4829 142.139H117.542C118.135 142.139 119.084 141.522 119.44 140.536L123.71 130.427H92.5156V125.373H125.015L127.98 117.113C128.217 116.374 128.217 115.511 127.743 114.771C127.268 114.031 126.557 113.662 125.726 113.662H87.0596V108.607H125.726C128.099 108.607 130.352 109.84 131.775 111.936C133.08 114.894 133.317 116.497 132.606 118.839ZM85.7549 29.8331C84.213 28.6003 82.9083 27.6141 81.0105 26.7511L121.575 11.7113L92.1598 36.8599C90.3807 34.2711 88.3643 31.8055 85.7549 29.8331ZM94.8878 49.9273C97.7345 57.5704 102.123 63.7343 107.816 70.5145C110.189 71.9939 113.035 74.2129 116.475 76.5551C118.135 77.6646 119.084 79.5138 118.966 81.4862L118.847 91.3484C118.847 92.2113 118.61 93.0743 118.135 93.9372L116.831 97.6355C114.458 100.224 111.73 101.827 108.765 101.827H100.107L99.9881 100.964C95.1251 95.7864 90.4993 91.4717 83.9757 88.6363C78.2825 85.9242 72.1147 85.1845 66.4215 84.5681C59.0677 95.17 55.2722 107.621 55.2722 120.565C55.2722 130.304 57.4072 140.166 61.4399 148.549C62.7446 151.384 64.2865 154.096 66.4215 156.685L68.6751 161L63.9307 160.63C55.9838 160.384 49.2231 158.658 40.9204 155.453C31.4316 151.384 23.0103 145.097 16.2496 136.961C15.3007 135.851 14.4704 134.742 13.5215 133.509H13.4029V133.386C4.74441 121.428 0 106.881 0 91.9648C0 76.925 4.6258 62.6248 13.2843 50.5436C21.1126 39.8185 31.906 31.559 44.1229 27.121C43.0554 18.1217 46.6137 8.99923 53.6116 3.45176L57.8816 0L57.763 5.54747C57.2885 11.9579 59.7793 18.245 64.2865 22.5597C66.8959 25.0253 70.217 26.6279 73.7753 27.7374C77.0964 29.0934 80.6546 30.4495 83.6199 32.915C89.3132 38.3392 92.7528 45.366 94.8878 49.9273ZM20.0451 134.619C26.2128 141.029 34.1596 146.946 42.9368 150.768C48.2742 153.11 53.8489 154.713 59.5421 155.206C58.7119 153.727 58.0002 152.247 57.2885 150.768C52.9 141.276 50.6464 131.537 50.6464 120.565C50.6464 108.854 53.9675 95.5398 61.4399 84.8147C37.4807 87.5268 19.452 107.498 18.6217 131.783C18.9776 132.646 19.452 133.016 20.0451 134.619ZM72.5892 32.4219C68.2006 30.9426 64.2865 29.34 60.9655 26.258C56.8141 22.3132 54.0861 16.889 53.1372 11.0949C50.2906 16.026 48.037 22.4364 49.5789 28.6003C49.8161 30.2029 50.2905 31.8055 51.0022 33.2848L46.7323 35.5038C46.2578 34.3943 45.7834 33.1616 45.4276 32.0521C34.3969 36.3668 24.5522 43.7634 17.317 54.6118C9.25157 64.7205 4.98162 77.9112 4.98162 91.9648C4.98162 103.799 8.1841 115.387 14.1146 125.496C15.7751 114.278 20.7567 103.799 28.585 96.4028C35.8202 88.6363 43.4112 83.7052 52.4255 81.3629C50.8836 80.5 49.6975 80.3767 48.1556 78.5276C42.4623 73.5965 39.1412 66.1998 39.1412 59.173H44.0042C44.0042 64.7205 46.7323 70.7611 51.2394 75.1991C54.4419 77.4181 58.8305 79.0207 64.7609 80.5V79.5138C65.1168 79.5138 65.4726 80.1302 65.8284 79.7603C72.2334 80.3767 79.3499 81.1164 85.9921 84.3216C92.5156 87.2802 97.7345 91.7182 102.242 97.0191H108.647C110.426 97.0191 111.612 96.2795 111.73 95.17L113.865 91.4717L113.984 81.6095C113.984 81.3629 113.865 81.1164 113.628 80.8698C110.426 78.281 106.867 75.9387 104.258 73.2266C98.0903 66.9395 93.3459 59.7894 90.262 52.023C87.534 44.7496 84.213 39.9418 80.5361 36.9832C78.1639 34.8874 75.1986 33.6547 72.5892 32.4219ZM94.8878 150.645C97.6158 150.645 99.8694 152.987 99.8694 155.822C99.8694 158.658 97.6158 161 94.8878 161C92.1598 161 90.4993 158.658 90.4993 155.822C90.4993 152.987 92.0412 150.645 94.8878 150.645ZM111.375 150.645C114.103 150.645 116.356 152.987 116.356 155.822C116.356 158.658 114.103 161 111.375 161C108.647 161 106.393 158.658 106.393 155.822C106.393 152.987 108.647 150.645 111.375 150.645Z" fill="#0C191E"/>
</svg>
